<?xml version="1.0" standalone="no"?>
<!DOCTYPE svg PUBLIC "-//W3C//DTD SVG 20010904//EN"
 "http://www.w3.org/TR/2001/REC-SVG-20010904/DTD/svg10.dtd">
<svg version="1.0" xmlns="http://www.w3.org/2000/svg"
 width="350.000000pt" height="350.000000pt" viewBox="0 0 350.000000 350.000000"
 preserveAspectRatio="xMidYMid meet">
<metadata>
Created by potrace 1.11, written by Peter Selinger 2001-2013
</metadata>
<g transform="translate(0.000000,350.000000) scale(0.100000,-0.100000)"
fill="#000000" stroke="none">
<path d="M1470 3400 c-40 -7 -93 -41 -167 -108 -29 -26 -65 -57 -81 -69 -19
-14 -35 -41 -46 -77 -21 -67 -34 -79 -63 -63 -108 60 -110 61 -160 58 -21 -1
-73 -43 -73 -59 0 -4 -21 -20 -45 -37 -25 -16 -45 -35 -45 -41 0 -5 -13 -23
-29 -38 -34 -32 -51 -86 -47 -142 4 -40 46 -137 66 -149 5 -3 10 -14 10 -24 0
-10 15 -32 34 -49 29 -26 33 -36 30 -68 -2 -20 -8 -42 -14 -48 -19 -19 -10
-29 10 -11 28 25 28 97 0 125 -26 26 -25 33 3 25 18 -5 17 -3 -5 10 -32 18
-35 40 -12 73 22 32 40 27 58 -17 19 -49 52 -81 84 -81 13 0 31 -8 40 -17 17
-17 19 -20 21 -50 1 -15 2 -15 14 2 10 13 16 15 21 6 5 -7 2 -20 -6 -29 -8 -9
-20 -29 -27 -44 -8 -15 -19 -25 -25 -21 -7 4 -7 1 1 -7 9 -10 19 -5 46 24 30
31 67 48 67 31 0 -6 -40 -87 -46 -94 -2 -2 -18 -5 -36 -8 -55 -6 -62 -8 -93
-27 -30 -17 -75 -76 -75 -96 0 -5 -4 -10 -8 -10 -13 0 -61 -167 -65 -225 -3
-36 -14 -66 -39 -105 -68 -106 -155 -312 -162 -382 -2 -18 -6 -49 -10 -68 -3
-19 -8 -52 -11 -72 -3 -21 -9 -57 -14 -80 -5 -24 -13 -63 -16 -88 -4 -24 -8
-47 -10 -50 -2 -3 -6 -30 -10 -60 -3 -30 -8 -62 -10 -70 -2 -8 -7 -35 -10 -60
-4 -25 -20 -94 -37 -155 -32 -121 -35 -142 -23 -228 5 -36 4 -67 -3 -80 -29
-61 -43 -183 -29 -247 2 -8 7 -37 11 -65 4 -27 14 -71 23 -97 l15 -48 1149 0
c632 0 1149 3 1149 6 0 3 -7 13 -16 21 -14 15 -14 17 3 26 27 15 63 56 74 85
21 55 -6 93 -76 104 -20 3 -36 48 -17 48 15 0 73 62 84 90 25 63 30 148 10
179 -9 13 -17 31 -19 40 -1 8 -10 21 -20 28 -10 7 -23 16 -28 21 -6 5 -56 31
-110 58 -55 26 -103 52 -106 58 -4 5 9 31 29 59 20 28 38 56 39 64 2 7 5 21 7
31 3 9 5 23 5 30 1 13 21 33 122 122 105 92 213 206 234 246 39 77 84 140 129
182 48 44 53 65 13 56 -12 -3 -32 -7 -44 -10 -12 -2 -25 0 -28 6 -3 5 -15 10
-26 10 -10 0 -19 7 -19 15 0 15 -4 13 -54 -30 -23 -20 -38 -17 -31 7 4 13 11
27 16 32 12 13 11 26 0 26 -10 0 -45 -36 -117 -119 l-38 -43 -41 45 c-22 24
-47 53 -55 63 -60 76 -80 103 -80 111 0 5 -11 20 -24 32 -19 18 -28 21 -43 13
-14 -8 -23 -6 -38 8 -24 22 -56 32 -70 22 -6 -4 -26 -27 -45 -52 -30 -38 -71
-86 -115 -134 -6 -6 -35 -40 -64 -76 -47 -58 -118 -137 -255 -284 -25 -27 -46
-52 -46 -56 0 -3 23 -30 50 -59 64 -67 112 -136 110 -159 0 -9 -1 -30 -1 -47
-1 -61 -12 -67 -102 -61 -45 2 -90 5 -99 5 -19 1 -71 49 -76 72 -2 8 -5 21 -7
29 -2 8 -9 31 -15 50 -6 19 -13 51 -16 70 -3 19 -14 57 -24 85 -10 27 -27 79
-38 115 -12 36 -29 83 -38 105 -10 22 -19 49 -21 59 -2 11 -7 24 -12 30 -4 6
-23 49 -41 96 -19 47 -44 104 -58 128 -40 73 -74 174 -79 237 -11 144 -11 147
8 163 11 9 19 22 19 30 0 25 28 22 101 -11 86 -39 120 -36 138 13 6 19 19 32
35 36 24 6 31 15 27 37 -1 4 12 10 28 13 19 4 33 16 42 37 13 30 17 32 55 29
23 -2 44 0 47 5 3 5 7 48 8 96 2 89 15 127 45 127 9 0 28 28 45 65 17 36 35
65 40 65 5 0 9 -15 9 -34 0 -31 -9 -56 -35 -96 -22 -34 -30 -106 -14 -123 13
-13 72 -37 90 -37 18 0 8 21 -14 29 -40 15 -51 36 -38 73 7 18 23 49 37 70 14
20 28 50 30 67 6 36 -11 98 -34 124 -13 14 -14 22 -4 35 40 57 45 117 13 156
-5 6 -12 23 -15 36 -2 14 -8 34 -12 45 -10 25 -66 87 -72 80 -6 -5 -62 27 -62
35 0 4 -8 15 -18 26 -9 10 -32 39 -51 64 -65 85 -157 150 -216 150 -14 0 -25
3 -25 8 0 9 -131 10 -180 2z m-476 -719 c3 -5 0 -11 -8 -14 -15 -6 -26 1 -26
15 0 11 27 10 34 -1z m86 -95 c0 -3 -4 -8 -10 -11 -5 -3 -10 -1 -10 4 0 6 5
11 10 11 6 0 10 -2 10 -4z"/>
<path d="M795 2510 c-3 -5 -2 -18 4 -27 7 -14 9 -12 8 10 -2 30 -3 31 -12 17z"/>
</g>
</svg>
